<svg xmlns="http://www.w3.org/2000/svg" xmlns:xlink="http://www.w3.org/1999/xlink" width="360" height="640" viewBox="0 0 360 640">
  <defs>
    <clipPath id="clip-SplashScreen">
      <rect width="360" height="640"/>
    </clipPath>
  </defs>
  <g id="SplashScreen" clip-path="url(#clip-SplashScreen)">
    <rect width="360" height="640" fill="#fff"/>
    <g id="Ret창ngulo_2" data-name="Ret창ngulo 2" fill="#ffe600" stroke="#707070" stroke-width="1">
      <rect width="360" height="640" stroke="none"/>
      <rect x="0.5" y="0.5" width="359" height="639" fill="none"/>
    </g>
    <g id="logo" transform="translate(104 244)">
      <g id="Grupo_2" data-name="Grupo 2">
        <g id="Grupo_1" data-name="Grupo 1">
          <path id="Caminho_1" data-name="Caminho 1" d="M106.895,93.941V79H94.941V93.941H80v11.953H94.941v14.941h11.953V105.895h14.941V93.941Z" transform="translate(-56.094 -55.393)"/>
          <rect id="Ret창ngulo_1" data-name="Ret창ngulo 1" width="42" height="12" transform="translate(87 102)"/>
          <path id="Caminho_2" data-name="Caminho 2" d="M135.07,0H17.93A17.95,17.95,0,0,0,0,17.93V135.07A17.95,17.95,0,0,0,17.93,153H135.07A17.95,17.95,0,0,0,153,135.07V17.93A17.95,17.95,0,0,0,135.07,0ZM11.953,132.3V17.93a5.983,5.983,0,0,1,5.977-5.977H132.3Zm129.094,2.775a5.983,5.983,0,0,1-5.977,5.977H20.107l120.94-120.94Z"/>
        </g>
      </g>
    </g>
  </g>
</svg>
