<svg xmlns="http://www.w3.org/2000/svg" xmlns:xlink="http://www.w3.org/1999/xlink" width="1024" height="1024" viewBox="0 0 1024 1024">
  <defs>
    <clipPath id="clip-Icone">
      <rect width="1024" height="1024"/>
    </clipPath>
  </defs>
  <g id="Icone" clip-path="url(#clip-Icone)">
    <rect width="1024" height="1024" fill="#fff"/>
    <g id="icone-2" data-name="icone">
      <g id="Ret창ngulo_2" data-name="Ret창ngulo 2" fill="#ffe600" stroke="#707070" stroke-width="1">
        <rect width="1024" height="1024" stroke="none"/>
        <rect x="0.5" y="0.5" width="1023" height="1023" fill="none"/>
      </g>
      <g id="logo" transform="translate(173.635 173.635)">
        <g id="Grupo_2" data-name="Grupo 2">
          <g id="Grupo_1" data-name="Grupo 1">
            <path id="Caminho_1" data-name="Caminho 1" d="M199.739,145.522V79H146.522v66.522H80v53.217h66.522v66.522h53.217V198.739h66.522V145.522Z" transform="translate(26.435 26.104)"/>
            <rect id="Ret창ngulo_1" data-name="Ret창ngulo 1" width="187" height="53" transform="translate(387.365 454.365)"/>
            <path id="Caminho_2" data-name="Caminho 2" d="M601.357,0H79.826A79.917,79.917,0,0,0,0,79.826v521.53a79.917,79.917,0,0,0,79.826,79.826h521.53a79.917,79.917,0,0,0,79.826-79.826V79.826A79.917,79.917,0,0,0,601.357,0ZM53.217,589V79.826A26.639,26.639,0,0,1,79.826,53.217H589Zm574.748,12.353a26.639,26.639,0,0,1-26.609,26.609H89.518L627.965,89.518Z"/>
          </g>
        </g>
      </g>
    </g>
  </g>
</svg>
